<svg xmlns="http://www.w3.org/2000/svg" width="658" height="340" viewBox="0 0 658 340" font-family="'JetBrains Mono','Fira Code',ui-monospace,'SF Mono',Consolas,'DejaVu Sans Mono',monospace" font-size="15">
  <defs>
    <filter id="shadow" x="-20%" y="-20%" width="140%" height="140%">
      <feDropShadow dx="0" dy="6" stdDeviation="10" flood-color="#000000" flood-opacity="0.45"/>
    </filter>
    <clipPath id="clip"><rect x="0" y="0" width="658" height="340" rx="12" ry="12"/></clipPath>
  </defs>
  <g filter="url(#shadow)">
    <rect x="0" y="0" width="658" height="340" rx="12" ry="12" fill="#1e1e2e"/>
  </g>
  <g clip-path="url(#clip)">
    <rect x="0" y="0" width="658" height="32" fill="#181825"/>
    <circle cx="18" cy="16" r="6" fill="#f38ba8"/>
    <circle cx="38" cy="16" r="6" fill="#f9e2af"/>
    <circle cx="58" cy="16" r="6" fill="#a6e3a1"/>
    <text x="329" y="20" fill="#6c7086" font-size="12.5" text-anchor="middle">Table — header + row styling</text>
    <rect x="0" y="0" width="658" height="340" fill="#1e1e2e" fill-opacity="0"/>
    <g>
<rect x="14.0" y="46.0" width="630.0" height="20.0" fill="#1e1e2e"/>
<text x="14.0" y="60.8" textLength="9.0" lengthAdjust="spacingAndGlyphs" fill="#585b70" xml:space="preserve">╭</text>
<text x="23.0" y="60.8" textLength="90.0" lengthAdjust="spacingAndGlyphs" fill="#cdd6f4" font-weight="600" xml:space="preserve"> Services </text>
<text x="113.0" y="60.8" textLength="531.0" lengthAdjust="spacingAndGlyphs" fill="#585b70" xml:space="preserve">──────────────────────────────────────────────────────────╮</text>
<rect x="14.0" y="66.0" width="9.0" height="20.0" fill="#1e1e2e"/>
<rect x="23.0" y="66.0" width="612.0" height="20.0" fill="#cba6f7"/>
<rect x="635.0" y="66.0" width="9.0" height="20.0" fill="#1e1e2e"/>
<text x="14.0" y="80.8" textLength="9.0" lengthAdjust="spacingAndGlyphs" fill="#585b70" xml:space="preserve">│</text>
<text x="23.0" y="80.8" textLength="612.0" lengthAdjust="spacingAndGlyphs" fill="#1e1e2e" font-weight="600" xml:space="preserve">  Name             Status       Latency                             </text>
<text x="635.0" y="80.8" textLength="9.0" lengthAdjust="spacingAndGlyphs" fill="#585b70" xml:space="preserve">│</text>
<rect x="14.0" y="86.0" width="9.0" height="20.0" fill="#1e1e2e"/>
<rect x="23.0" y="86.0" width="612.0" height="20.0" fill="#cba6f7"/>
<rect x="635.0" y="86.0" width="9.0" height="20.0" fill="#1e1e2e"/>
<text x="14.0" y="100.8" textLength="9.0" lengthAdjust="spacingAndGlyphs" fill="#585b70" xml:space="preserve">│</text>
<text x="23.0" y="100.8" textLength="612.0" lengthAdjust="spacingAndGlyphs" fill="#1e1e2e" font-weight="600" xml:space="preserve">  type: text       type: enum   type: f64                           </text>
<text x="635.0" y="100.8" textLength="9.0" lengthAdjust="spacingAndGlyphs" fill="#585b70" xml:space="preserve">│</text>
<rect x="14.0" y="106.0" width="630.0" height="20.0" fill="#1e1e2e"/>
<text x="14.0" y="120.8" textLength="9.0" lengthAdjust="spacingAndGlyphs" fill="#585b70" xml:space="preserve">│</text>
<text x="23.0" y="120.8" textLength="171.0" lengthAdjust="spacingAndGlyphs" fill="#cdd6f4" xml:space="preserve">  api-gateway      </text>
<text x="194.0" y="120.8" textLength="108.0" lengthAdjust="spacingAndGlyphs" fill="#a6e3a1" font-weight="600" xml:space="preserve">healthy     </text>
<text x="311.0" y="120.8" textLength="90.0" lengthAdjust="spacingAndGlyphs" fill="#a6adc8" xml:space="preserve">12ms      </text>
<text x="635.0" y="120.8" textLength="9.0" lengthAdjust="spacingAndGlyphs" fill="#585b70" xml:space="preserve">│</text>
<rect x="14.0" y="126.0" width="9.0" height="20.0" fill="#1e1e2e"/>
<rect x="23.0" y="126.0" width="612.0" height="20.0" fill="#313244"/>
<rect x="635.0" y="126.0" width="9.0" height="20.0" fill="#1e1e2e"/>
<text x="14.0" y="140.8" textLength="9.0" lengthAdjust="spacingAndGlyphs" fill="#585b70" xml:space="preserve">│</text>
<text x="23.0" y="140.8" textLength="171.0" lengthAdjust="spacingAndGlyphs" fill="#cdd6f4" xml:space="preserve">  auth-service     </text>
<text x="194.0" y="140.8" textLength="108.0" lengthAdjust="spacingAndGlyphs" fill="#a6e3a1" font-weight="600" xml:space="preserve">healthy     </text>
<text x="311.0" y="140.8" textLength="90.0" lengthAdjust="spacingAndGlyphs" fill="#a6adc8" xml:space="preserve">8ms       </text>
<text x="635.0" y="140.8" textLength="9.0" lengthAdjust="spacingAndGlyphs" fill="#585b70" xml:space="preserve">│</text>
<rect x="14.0" y="146.0" width="9.0" height="20.0" fill="#1e1e2e"/>
<rect x="23.0" y="146.0" width="612.0" height="20.0" fill="#45475a"/>
<rect x="635.0" y="146.0" width="9.0" height="20.0" fill="#1e1e2e"/>
<text x="14.0" y="160.8" textLength="9.0" lengthAdjust="spacingAndGlyphs" fill="#585b70" xml:space="preserve">│</text>
<text x="23.0" y="160.8" textLength="171.0" lengthAdjust="spacingAndGlyphs" fill="#cdd6f4" font-weight="600" xml:space="preserve">▸ billing-worker   </text>
<text x="194.0" y="160.8" textLength="108.0" lengthAdjust="spacingAndGlyphs" fill="#f9e2af" font-weight="600" xml:space="preserve">degraded    </text>
<text x="311.0" y="160.8" textLength="90.0" lengthAdjust="spacingAndGlyphs" fill="#a6adc8" font-weight="600" xml:space="preserve">340ms     </text>
<text x="635.0" y="160.8" textLength="9.0" lengthAdjust="spacingAndGlyphs" fill="#585b70" xml:space="preserve">│</text>
<rect x="14.0" y="166.0" width="9.0" height="20.0" fill="#1e1e2e"/>
<rect x="23.0" y="166.0" width="612.0" height="20.0" fill="#313244"/>
<rect x="635.0" y="166.0" width="9.0" height="20.0" fill="#1e1e2e"/>
<text x="14.0" y="180.8" textLength="9.0" lengthAdjust="spacingAndGlyphs" fill="#585b70" xml:space="preserve">│</text>
<text x="23.0" y="180.8" textLength="171.0" lengthAdjust="spacingAndGlyphs" fill="#cdd6f4" xml:space="preserve">  search-index     </text>
<text x="194.0" y="180.8" textLength="108.0" lengthAdjust="spacingAndGlyphs" fill="#f38ba8" font-weight="600" xml:space="preserve">down        </text>
<text x="311.0" y="180.8" textLength="90.0" lengthAdjust="spacingAndGlyphs" fill="#a6adc8" xml:space="preserve">—         </text>
<text x="635.0" y="180.8" textLength="9.0" lengthAdjust="spacingAndGlyphs" fill="#585b70" xml:space="preserve">│</text>
<rect x="14.0" y="186.0" width="630.0" height="20.0" fill="#1e1e2e"/>
<text x="14.0" y="200.8" textLength="9.0" lengthAdjust="spacingAndGlyphs" fill="#585b70" xml:space="preserve">│</text>
<text x="23.0" y="200.8" textLength="171.0" lengthAdjust="spacingAndGlyphs" fill="#cdd6f4" xml:space="preserve">  cache-node-1     </text>
<text x="194.0" y="200.8" textLength="108.0" lengthAdjust="spacingAndGlyphs" fill="#a6e3a1" font-weight="600" xml:space="preserve">healthy     </text>
<text x="311.0" y="200.8" textLength="90.0" lengthAdjust="spacingAndGlyphs" fill="#a6adc8" xml:space="preserve">1ms       </text>
<text x="635.0" y="200.8" textLength="9.0" lengthAdjust="spacingAndGlyphs" fill="#585b70" xml:space="preserve">│</text>
<rect x="14.0" y="206.0" width="630.0" height="20.0" fill="#1e1e2e"/>
<text x="14.0" y="220.8" textLength="9.0" lengthAdjust="spacingAndGlyphs" fill="#585b70" xml:space="preserve">│</text>
<text x="635.0" y="220.8" textLength="9.0" lengthAdjust="spacingAndGlyphs" fill="#585b70" xml:space="preserve">│</text>
<rect x="14.0" y="226.0" width="630.0" height="20.0" fill="#1e1e2e"/>
<text x="14.0" y="240.8" textLength="9.0" lengthAdjust="spacingAndGlyphs" fill="#585b70" xml:space="preserve">│</text>
<text x="635.0" y="240.8" textLength="9.0" lengthAdjust="spacingAndGlyphs" fill="#585b70" xml:space="preserve">│</text>
<rect x="14.0" y="246.0" width="630.0" height="20.0" fill="#1e1e2e"/>
<text x="14.0" y="260.8" textLength="9.0" lengthAdjust="spacingAndGlyphs" fill="#585b70" xml:space="preserve">│</text>
<text x="635.0" y="260.8" textLength="9.0" lengthAdjust="spacingAndGlyphs" fill="#585b70" xml:space="preserve">│</text>
<rect x="14.0" y="266.0" width="630.0" height="20.0" fill="#1e1e2e"/>
<text x="14.0" y="280.8" textLength="9.0" lengthAdjust="spacingAndGlyphs" fill="#585b70" xml:space="preserve">│</text>
<text x="635.0" y="280.8" textLength="9.0" lengthAdjust="spacingAndGlyphs" fill="#585b70" xml:space="preserve">│</text>
<rect x="14.0" y="286.0" width="630.0" height="20.0" fill="#1e1e2e"/>
<text x="14.0" y="300.8" textLength="9.0" lengthAdjust="spacingAndGlyphs" fill="#585b70" xml:space="preserve">│</text>
<text x="635.0" y="300.8" textLength="9.0" lengthAdjust="spacingAndGlyphs" fill="#585b70" xml:space="preserve">│</text>
<rect x="14.0" y="306.0" width="630.0" height="20.0" fill="#1e1e2e"/>
<text x="14.0" y="320.8" textLength="630.0" lengthAdjust="spacingAndGlyphs" fill="#585b70" xml:space="preserve">╰────────────────────────────────────────────────────────────────────╯</text>
    </g>
  </g>
</svg>
